<?xml version="1.0" encoding="utf-8"?>
<!-- Generator: Adobe Illustrator 26.3.1, SVG Export Plug-In . SVG Version: 6.00 Build 0)  -->
<svg version="1.1" id="Layer_1" xmlns="http://www.w3.org/2000/svg" xmlns:xlink="http://www.w3.org/1999/xlink" x="0px" y="0px"
	 viewBox="0 0 576 576" style="enable-background:new 0 0 576 576;" xml:space="preserve">
<style type="text/css">
	.st0{fill:#DDE96B;}
	.st1{fill:#ABD543;}
	.st2{fill:#98BB2D;}
	.st3{fill:#869E24;}
	.st4{fill:#586F17;}
	.st5{fill:#E1EC6C;}
	.st6{fill:#99BC2E;}
	.st7{fill:#FFFFFF;}
	.st8{fill:#212121;}
</style>
<g>
	<path class="st0" d="M143.16,140.18c-10.02,4.23-22.18,9.48-36.01,15.7c-7.76,3.49-23.96,10.92-23.6,17.91
		c0.04,0.75,0.29,1.97,0.35,2.23c3.98,17.44,16.53,12.6,29.43,17.92c12.9,5.33,35.8,16.47,46.26,31.97
		c10.46,15.5,39.84,34.88,46.31,33.43l1.33,0.08c0,0,2.16-14.61,6.47-18.81c0,0-20.25-10.66-41.49-44.89
		c-2.17-2.92-4.95-5.92-8.49-8.62c-16.4-12.53-36.86-9.27-42.46-8.19c-22.96,0.7-34.97-1.18-36.03-5.64
		C83.79,167.15,103.1,156.11,143.16,140.18z"/>
	<path class="st0" d="M232.83,242.43l9.77,45.54c0,0,10.38,51.37,49.97,55.48c39.58,4.11,17.3-25.44,17.3-25.44l-13.46-39.24
		C296.4,278.77,277.88,241.95,232.83,242.43z"/>
	<path class="st1" d="M133.43,356.62c0,0-5.3,20.57-14.01,23.33s2.67,5.19,2.67,5.19s28.68,14.89,24.82,29.9
		c-3.87,15.01,21.24-30.05,21.24-30.05L133.43,356.62z"/>
	<path class="st1" d="M281.26,386.94c0,0,0,21.24-7.75,26.08c-7.75,4.84,3.88,4.36,3.88,4.36s31.49,7.27,31.49,22.77
		c0,15.5,13.08-34.4,13.08-34.4L281.26,386.94z"/>
	<path class="st1" d="M158.98,376.66h-2.45c0-0.34,0.02-0.68,0.04-1.04L158.98,376.66z"/>
	<polygon class="st1" points="163.93,376.66 163.13,378.48 158.98,376.66 	"/>
	<path class="st1" d="M159.68,386.42l-0.83,1.9c-0.36-0.55-0.68-1.18-0.99-1.9H159.68z"/>
	<path class="st1" d="M447.47,307.73c-20.83,17.93-142.42,13.07-142.42,13.07s-9.7,3.89-21.8-46.01c0,0-13.57-27.61-46.03-26.64
		c0,0,39.26,105.12-61.04,141.93c0,0-4.02,2.75-8.48,3.66l-11.71,26.89v0.02c2.31,2.47,3.72,5.77,3.72,9.41
		c0,7.63-6.17,13.79-13.79,13.79c-7.63,0-13.81-6.17-13.81-13.79c0-7.63,6.19-13.81,13.81-13.81c0.44,0,0.89,0.02,1.31,0.08
		l11.18-25.69l0.83-1.9h-39.71c-0.91,6.62-6.6,11.73-13.47,11.73c-7.53,0-13.62-6.09-13.62-13.62c0-7.51,6.09-13.62,13.62-13.62
		c4.59,0,8.65,2.28,11.12,5.77h41.36l4.16,1.82l0.8-1.82h-4.95l-2.41-1.04l-27.48-11.97c-2.01,1.39-4.46,2.2-7.08,2.2
		c-6.93,0-12.52-5.6-12.52-12.5c0-6.93,5.6-12.52,12.52-12.52c6.91,0,12.5,5.6,12.5,12.52c0,0.66-0.06,1.33-0.15,1.95l23.85,10.4
		c8.35-26.92,47-46.24,47-46.24s-14.53-49.41,6.3-80.89c0,0-25.67-16.47-41.17-47c0,0-10.83-18.41-65.25-12.11
		c-9.86,1.73-18-0.74-20.39-5.79c-2.51-5.32,2.01-12.09,3.12-13.75c7.18-10.75,21.12-13.75,48.76-19.7
		c0.51-0.11,2.06-0.39,2.01-0.38c-0.53,0.15-0.89,0.27-1.08,0.34c0.87-0.15,5.88-1.16,7.13-1.44c-0.61,0.08-2.37,0.4-5.96,1.08
		c6.79-2.05,39.39-10.11,84.93,6.2c51.35,18.41,93.01,30.04,96.88,30.53c3.89,0.47,84.8,29.54,132.27,96.88
		C452.33,275.76,468.31,289.8,447.47,307.73z"/>
	<polygon class="st1" points="163.93,376.66 163.13,378.48 158.98,376.66 	"/>
	<polygon class="st1" points="163.93,376.66 163.13,378.48 158.98,376.66 	"/>
	<path class="st2" d="M328.06,403l-10.4,41.42c3.34,2.24,5.56,6.05,5.56,10.4c0,6.89-5.58,12.49-12.47,12.49
		c-6.91,0-12.49-5.6-12.49-12.49c0-5.96,4.19-10.95,9.79-12.18l7.67-30.55l-39.75,11.42c0.04,0.32,0.06,0.65,0.06,0.99
		c0,7.23-5.86,13.09-13.09,13.09c-7.21,0-13.07-5.86-13.07-13.09c0-7.21,5.86-13.07,13.07-13.07c3.3,0,6.3,1.21,8.6,3.23
		l37.78-10.87l-28.4-7.13c-2.13,3.97-6.32,6.64-11.12,6.64c-7,0-12.66-5.65-12.66-12.64s5.65-12.66,12.66-12.66
		c5.65,0,10.42,3.7,12.05,8.82l47.08,11.82l-1.08,4.31L328.06,403z"/>
	
		<ellipse transform="matrix(0.9608 -0.2771 0.2771 0.9608 -89.5097 123.5491)" class="st2" cx="392.4" cy="378.48" rx="87.34" ry="28.92"/>
	<path class="st2" d="M298.61,327.29c0,0,23.06-34.92,83.13-48.97c60.07-14.05,69.76-1.94,72.18,0c2.42,1.94,14.05,11.63-7.27,29.07
		S298.61,327.29,298.61,327.29z"/>
	<path class="st3" d="M298.3,327.29c0,0,25.57-39.8,93.39-35.92s63.95,6.3,63.95,6.3l-4.01,5.37L298.3,327.29z"/>
	<ellipse class="st1" cx="392.4" cy="340.16" rx="100.1" ry="45.3"/>
	<ellipse class="st4" cx="121.67" cy="162.48" rx="6.3" ry="3.55"/>
	<path class="st2" d="M174.32,378.88l-19.03,41.3c2.8,3.01,4.17,7.45,3.24,12c-1.47,7.21-8.14,11.96-14.9,10.58
		c-6.78-1.38-11.06-8.36-9.59-15.57c1.27-6.24,6.45-10.63,12.2-10.8l14.03-30.46l-41.45,4.02c-0.03,0.35-0.08,0.69-0.15,1.04
		c-1.54,7.57-8.54,12.54-15.64,11.1c-7.08-1.44-11.58-8.75-10.04-16.32c1.54-7.55,8.54-12.52,15.62-11.08
		c3.24,0.66,5.92,2.53,7.75,5.09l39.39-3.84L129.4,362.8c-2.93,3.73-7.62,5.69-12.33,4.73c-6.87-1.4-11.22-8.45-9.73-15.76
		s8.25-12.12,15.12-10.73c5.55,1.13,9.43,5.96,9.94,11.65l43.68,21.78l-1.98,4.29L174.32,378.88z"/>
	<circle class="st1" cx="171.85" cy="139.46" r="30.76"/>
	<circle class="st5" cx="171.85" cy="139.46" r="21.48"/>
	<ellipse class="st6" cx="395.75" cy="259.94" rx="9.39" ry="9.57"/>
	<ellipse class="st6" cx="292.29" cy="211.91" rx="9.39" ry="9.57"/>
	<ellipse class="st6" cx="351.06" cy="242.91" rx="7.32" ry="7.46"/>
	<ellipse class="st6" cx="280.75" cy="238.08" rx="2.58" ry="2.63"/>
	<ellipse class="st6" cx="327.4" cy="268.99" rx="2.58" ry="2.63"/>
	<ellipse class="st6" cx="319.7" cy="213.31" rx="3.96" ry="4.03"/>
	
		<ellipse transform="matrix(0.9117 -0.4109 0.4109 0.9117 -69.1878 151.5888)" class="st6" cx="318.04" cy="236.74" rx="3.97" ry="4.05"/>
	
		<ellipse transform="matrix(0.9117 -0.4109 0.4109 0.9117 -60.6159 122.6605)" class="st6" cx="255.03" cy="202.34" rx="5.97" ry="6.08"/>
	<ellipse class="st6" cx="353.65" cy="272.14" rx="2.58" ry="2.63"/>
	<ellipse class="st6" cx="380.69" cy="233.95" rx="3.7" ry="3.77"/>
	<ellipse class="st6" cx="348.61" cy="219.74" rx="2.36" ry="2.41"/>
	<ellipse class="st6" cx="235.19" cy="174.16" rx="2.36" ry="2.41"/>
	<ellipse class="st6" cx="342.1" cy="337.52" rx="2.58" ry="2.63"/>
	<ellipse class="st6" cx="392.21" cy="337.3" rx="3.45" ry="3.51"/>
	<ellipse class="st6" cx="420.08" cy="324.85" rx="5.19" ry="5.29"/>
	<circle class="st6" cx="364.42" cy="322.11" r="4.47"/>
	<circle class="st6" cx="440.83" cy="334.89" r="2.28"/>
	<circle class="st6" cx="464.03" cy="330.14" r="7.3"/>
	<ellipse class="st7" cx="172.29" cy="139.46" rx="6.66" ry="16.73"/>
	<ellipse class="st8" cx="170.75" cy="139.46" rx="7.11" ry="17.04"/>
</g>
</svg>
