<svg width="232" height="39" viewBox="0 0 232 39" fill="none" xmlns="http://www.w3.org/2000/svg">
<path d="M5.98867 3.13386C4.98114 3.55398 3.76181 4.07629 2.37646 4.69511C1.59792 5.04143 -0.0278587 5.77947 0.00648869 6.47778C0.0122133 6.55158 0.0351102 6.6708 0.0408347 6.69919C0.441555 8.43644 1.70096 7.95387 2.99472 8.48186C4.28847 9.00984 6.58975 10.1226 7.63734 11.6668C8.68494 13.211 11.6331 15.1413 12.2857 14.9937L12.4174 14.9994C12.4174 14.9994 12.6349 13.546 13.0642 13.1259C13.0642 13.1259 11.032 12.0642 8.89675 8.65785C8.67922 8.36831 8.39871 8.06741 8.04379 7.80058C6.40084 6.55157 4.34571 6.87519 3.78471 6.98306C1.4777 7.05118 0.275543 6.86383 0.166776 6.421C0.0293863 5.81921 1.96429 4.71782 5.98867 3.13386Z" fill="#DDE96B"/>
<path d="M14.9877 13.3132L15.9666 17.8437C15.9666 17.8437 17.0085 22.9589 20.9813 23.3677C24.9542 23.7764 22.7159 20.8356 22.7159 20.8356L21.3649 16.9296C21.3649 16.9296 19.5101 13.2621 14.9877 13.3132Z" fill="#DDE96B"/>
<path d="M5.00977 24.6791C5.00977 24.6791 4.47738 26.7286 3.60152 27.0011C2.72566 27.2736 3.87058 27.5178 3.87058 27.5178C3.87058 27.5178 6.75004 28.9995 6.36077 30.4927C5.9715 31.9858 8.49031 27.5007 8.49031 27.5007L5.00977 24.6791Z" fill="#ABD543"/>
<path d="M19.8479 27.6938C19.8479 27.6938 19.8479 29.8057 19.0693 30.2883C18.2908 30.7709 19.4586 30.7198 19.4586 30.7198C19.4586 30.7198 22.6186 31.4408 22.6186 32.985C22.6186 34.5292 23.9295 29.5616 23.9295 29.5616L19.8479 27.6938Z" fill="#ABD543"/>
<path d="M7.57438 26.6719H7.32822C7.32822 26.6378 7.32822 26.6037 7.33394 26.5697L7.57438 26.6719Z" fill="#ABD543"/>
<path d="M8.07241 26.6719L7.99227 26.8535L7.57438 26.6719H8.07241Z" fill="#ABD543"/>
<path d="M7.64307 27.6427L7.5572 27.83C7.52286 27.7732 7.4885 27.7108 7.45988 27.6427H7.64307Z" fill="#ABD543"/>
<path d="M36.5293 19.8137C34.4398 21.5964 22.235 21.1138 22.235 21.1138C22.235 21.1138 21.2618 21.4999 20.0482 16.5322C20.0482 16.5322 18.6858 13.7844 15.4285 13.881C15.4285 13.881 19.367 24.3442 9.30319 28.006C9.30319 28.006 8.89675 28.2785 8.45023 28.3694L7.27669 31.0434C7.5114 31.2875 7.64879 31.6168 7.64879 31.9801C7.64879 32.7409 7.03054 33.354 6.26345 33.354C5.49635 33.354 4.8781 32.7409 4.8781 31.9801C4.8781 31.2194 5.49635 30.6062 6.26345 30.6062C6.30924 30.6062 6.35504 30.6062 6.39511 30.6119L7.51713 28.0571L7.60299 27.8698H3.61869C3.5271 28.5283 2.95464 29.0393 2.26769 29.0393C1.51205 29.0393 0.899521 28.4318 0.899521 27.6824C0.899521 26.933 1.51205 26.3255 2.26769 26.3255C2.73138 26.3255 3.13783 26.5526 3.38399 26.899H7.5343L7.95219 27.0806L8.03234 26.899H7.5343L7.29387 26.7968L4.53462 25.6045C4.33426 25.7408 4.08811 25.8259 3.82478 25.8259C3.1321 25.8259 2.56537 25.2696 2.56537 24.5826C2.56537 23.8957 3.12638 23.3336 3.82478 23.3336C4.51745 23.3336 5.07846 23.89 5.07846 24.5826C5.07846 24.6508 5.07274 24.7132 5.06129 24.7757L7.45416 25.8089C8.28995 23.1292 12.1712 21.2046 12.1712 21.2046C12.1712 21.2046 10.7114 16.2881 12.8009 13.1543C12.8009 13.1543 10.2248 11.5135 8.66777 8.47617C8.66777 8.47617 7.5801 6.64242 2.11886 7.27259C1.12851 7.44291 0.309893 7.1988 0.0751856 6.69352C-0.176696 6.16553 0.275543 5.48993 0.390034 5.32529C1.11133 4.25796 2.50813 3.95707 5.28455 3.36663C5.33607 3.35528 5.49063 3.32689 5.4849 3.32689C5.43338 3.34392 5.39331 3.35527 5.37614 3.36095C5.46201 3.34392 5.96577 3.2474 6.09171 3.21902C6.02874 3.22469 5.85128 3.25876 5.49635 3.32689C6.17758 3.1225 9.45204 2.32201 14.0202 3.94571C19.1724 5.77947 23.357 6.93764 23.7463 6.98306C24.1356 7.02847 32.2587 9.92389 37.0216 16.6288C37.0158 16.6288 38.6187 18.0254 36.5293 19.8137Z" fill="#ABD543"/>
<path d="M8.07241 26.6719L7.99227 26.8535L7.57438 26.6719H8.07241Z" fill="#ABD543"/>
<path d="M8.07241 26.6719L7.99227 26.8535L7.57438 26.6719H8.07241Z" fill="#ABD543"/>
<path d="M24.542 29.2948L23.5001 33.4165C23.8379 33.6379 24.0554 34.0183 24.0554 34.4497C24.0554 35.1367 23.4944 35.6931 22.8017 35.6931C22.1091 35.6931 21.5481 35.1367 21.5481 34.4497C21.5481 33.8593 21.9717 33.3597 22.5327 33.2348L23.2998 30.1918L19.3097 31.3272C19.3155 31.3613 19.3155 31.3897 19.3155 31.4237C19.3155 32.1448 18.7258 32.7295 17.9988 32.7295C17.2775 32.7295 16.6879 32.1448 16.6879 31.4237C16.6879 30.7084 17.2775 30.1236 17.9988 30.1236C18.3308 30.1236 18.6285 30.2429 18.8632 30.4473L22.6529 29.3629L19.8021 28.6532C19.5903 29.0506 19.1666 29.3118 18.6858 29.3118C17.9816 29.3118 17.4149 28.7497 17.4149 28.0514C17.4149 27.3588 17.9816 26.7911 18.6858 26.7911C19.2525 26.7911 19.7334 27.1601 19.8937 27.6711L24.6164 28.8463L24.5077 29.2777L24.542 29.2948Z" fill="#98BB2D"/>
<path d="M31.8017 29.6118C36.4524 28.2816 39.8624 25.9651 39.4182 24.4377C38.9741 22.9104 34.8439 22.7505 30.1932 24.0807C25.5426 25.4109 22.1326 27.7274 22.5767 29.2548C23.0209 30.7822 27.1511 30.942 31.8017 29.6118Z" fill="#98BB2D"/>
<path d="M21.5881 21.7553C21.5881 21.7553 23.9009 18.2808 29.9346 16.8842C35.9625 15.4876 36.9357 16.6912 37.1819 16.8842C37.4223 17.0773 38.5901 18.0424 36.4548 19.7796C34.3081 21.5112 21.5881 21.7553 21.5881 21.7553Z" fill="#98BB2D"/>
<path d="M21.5595 21.7553C21.5595 21.7553 24.1241 17.7926 30.9306 18.1786C37.7371 18.5647 37.3479 18.8032 37.3479 18.8032L36.9472 19.3368L21.5595 21.7553Z" fill="#869E24"/>
<path d="M30.9993 27.5462C36.5479 27.5462 41.0459 25.528 41.0459 23.0384C41.0459 20.5488 36.5479 18.5306 30.9993 18.5306C25.4507 18.5306 20.9527 20.5488 20.9527 23.0384C20.9527 25.528 25.4507 27.5462 30.9993 27.5462Z" fill="#ABD543"/>
<path d="M3.8305 5.70567C4.17828 5.70567 4.46021 5.54808 4.46021 5.35368C4.46021 5.15928 4.17828 5.00168 3.8305 5.00168C3.48273 5.00168 3.2008 5.15928 3.2008 5.35368C3.2008 5.54808 3.48273 5.70567 3.8305 5.70567Z" fill="#586F17"/>
<path d="M9.11428 26.8933L7.20228 31.0036C7.48278 31.3045 7.62017 31.7473 7.52858 32.1959C7.37974 32.9112 6.70996 33.3881 6.03446 33.2518C5.35324 33.1156 4.9239 32.4229 5.07273 31.7019C5.19868 31.0831 5.71961 30.646 6.29779 30.6289L7.70604 27.5973L3.54428 28.0004C3.53855 28.0344 3.53855 28.0685 3.5271 28.1025C3.37254 28.8576 2.66841 29.3515 1.95857 29.2096C1.24872 29.0677 0.796481 28.341 0.951044 27.5859C1.10561 26.8365 1.80973 26.3426 2.51958 26.4845C2.84588 26.5526 3.11493 26.7343 3.29812 26.9898L7.2538 26.6094L4.60905 25.3036C4.31709 25.6727 3.84195 25.8714 3.37254 25.7749C2.68559 25.6329 2.2448 24.9346 2.39363 24.2079C2.54247 23.4812 3.2237 22.9987 3.91065 23.1406C4.46593 23.2541 4.8552 23.731 4.90672 24.2988L9.29175 26.4675L9.09139 26.8933H9.11428Z" fill="#98BB2D"/>
<path d="M8.86813 6.12011C10.5722 6.12011 11.9537 4.75007 11.9537 3.06005C11.9537 1.37003 10.5722 0 8.86813 0C7.16403 0 5.78258 1.37003 5.78258 3.06005C5.78258 4.75007 7.16403 6.12011 8.86813 6.12011Z" fill="#ABD543"/>
<path d="M8.86813 5.20039C10.0601 5.20039 11.0263 4.24213 11.0263 3.06005C11.0263 1.87798 10.0601 0.919725 8.86813 0.919725C7.67621 0.919725 6.70996 1.87798 6.70996 3.06005C6.70996 4.24213 7.67621 5.20039 8.86813 5.20039Z" fill="#E1EC6C"/>
<path d="M31.3371 16.0099C31.8587 16.0099 32.2816 15.5829 32.2816 15.0561C32.2816 14.5294 31.8587 14.1024 31.3371 14.1024C30.8154 14.1024 30.3925 14.5294 30.3925 15.0561C30.3925 15.5829 30.8154 16.0099 31.3371 16.0099Z" fill="#99BC2E"/>
<path d="M20.9527 11.224C21.4744 11.224 21.8973 10.797 21.8973 10.2702C21.8973 9.74344 21.4744 9.31642 20.9527 9.31642C20.431 9.31642 20.0081 9.74344 20.0081 10.2702C20.0081 10.797 20.431 11.224 20.9527 11.224Z" fill="#99BC2E"/>
<path d="M26.8547 14.1024C27.2594 14.1024 27.5875 13.7694 27.5875 13.3586C27.5875 12.9479 27.2594 12.6149 26.8547 12.6149C26.4501 12.6149 26.122 12.9479 26.122 13.3586C26.122 13.7694 26.4501 14.1024 26.8547 14.1024Z" fill="#99BC2E"/>
<path d="M19.7963 13.1372C19.9386 13.1372 20.0539 13.0203 20.0539 12.8761C20.0539 12.7318 19.9386 12.6149 19.7963 12.6149C19.6541 12.6149 19.5387 12.7318 19.5387 12.8761C19.5387 13.0203 19.6541 13.1372 19.7963 13.1372Z" fill="#99BC2E"/>
<path d="M24.479 16.2143C24.6213 16.2143 24.7366 16.0974 24.7366 15.9532C24.7366 15.8089 24.6213 15.692 24.479 15.692C24.3368 15.692 24.2214 15.8089 24.2214 15.9532C24.2214 16.0974 24.3368 16.2143 24.479 16.2143Z" fill="#99BC2E"/>
<path d="M23.7062 10.8152C23.9244 10.8152 24.1012 10.6347 24.1012 10.4121C24.1012 10.1895 23.9244 10.009 23.7062 10.009C23.4881 10.009 23.3112 10.1895 23.3112 10.4121C23.3112 10.6347 23.4881 10.8152 23.7062 10.8152Z" fill="#99BC2E"/>
<path d="M23.7101 13.1141C23.9119 13.0239 24.0007 12.7863 23.9085 12.5833C23.8162 12.3803 23.5779 12.2889 23.3761 12.3791C23.1743 12.4693 23.0856 12.7069 23.1778 12.9099C23.27 13.1129 23.5084 13.2043 23.7101 13.1141Z" fill="#99BC2E"/>
<path d="M17.4697 9.87764C17.7723 9.74236 17.905 9.38475 17.766 9.07888C17.627 8.77301 17.2689 8.63471 16.9663 8.76999C16.6636 8.90527 16.531 9.26289 16.67 9.56877C16.809 9.87464 17.167 10.0129 17.4697 9.87764Z" fill="#99BC2E"/>
<path d="M27.1123 16.5266C27.2546 16.5266 27.3699 16.4096 27.3699 16.2654C27.3699 16.1212 27.2546 16.0043 27.1123 16.0043C26.9701 16.0043 26.8547 16.1212 26.8547 16.2654C26.8547 16.4096 26.9701 16.5266 27.1123 16.5266Z" fill="#99BC2E"/>
<path d="M29.8258 12.842C30.0313 12.842 30.1979 12.6742 30.1979 12.4673C30.1979 12.2604 30.0313 12.0926 29.8258 12.0926C29.6203 12.0926 29.4537 12.2604 29.4537 12.4673C29.4537 12.6742 29.6203 12.842 29.8258 12.842Z" fill="#99BC2E"/>
<path d="M26.6086 11.2921C26.7382 11.2921 26.8433 11.1854 26.8433 11.0537C26.8433 10.922 26.7382 10.8152 26.6086 10.8152C26.4789 10.8152 26.3739 10.922 26.3739 11.0537C26.3739 11.1854 26.4789 11.2921 26.6086 11.2921Z" fill="#99BC2E"/>
<path d="M15.2224 6.75597C15.352 6.75597 15.4571 6.64921 15.4571 6.51752C15.4571 6.38583 15.352 6.27907 15.2224 6.27907C15.0928 6.27907 14.9877 6.38583 14.9877 6.51752C14.9877 6.64921 15.0928 6.75597 15.2224 6.75597Z" fill="#99BC2E"/>
<path d="M25.956 23.0384C26.0982 23.0384 26.2136 22.9215 26.2136 22.7772C26.2136 22.633 26.0982 22.5161 25.956 22.5161C25.8137 22.5161 25.6984 22.633 25.6984 22.7772C25.6984 22.9215 25.8137 23.0384 25.956 23.0384Z" fill="#99BC2E"/>
<path d="M30.9821 23.1065C31.1718 23.1065 31.3256 22.9489 31.3256 22.7545C31.3256 22.5601 31.1718 22.4025 30.9821 22.4025C30.7925 22.4025 30.6387 22.5601 30.6387 22.7545C30.6387 22.9489 30.7925 23.1065 30.9821 23.1065Z" fill="#99BC2E"/>
<path d="M33.7815 22.0449C34.0692 22.0449 34.3024 21.8085 34.3024 21.5169C34.3024 21.2253 34.0692 20.9889 33.7815 20.9889C33.4938 20.9889 33.2605 21.2253 33.2605 21.5169C33.2605 21.8085 33.4938 22.0449 33.7815 22.0449Z" fill="#99BC2E"/>
<path d="M28.1943 21.6872C28.4409 21.6872 28.6408 21.489 28.6408 21.2444C28.6408 20.9998 28.4409 20.8016 28.1943 20.8016C27.9477 20.8016 27.7478 20.9998 27.7478 21.2444C27.7478 21.489 27.9477 21.6872 28.1943 21.6872Z" fill="#99BC2E"/>
<path d="M35.8652 22.7432C35.9917 22.7432 36.0942 22.6415 36.0942 22.5161C36.0942 22.3907 35.9917 22.289 35.8652 22.289C35.7388 22.289 35.6362 22.3907 35.6362 22.5161C35.6362 22.6415 35.7388 22.7432 35.8652 22.7432Z" fill="#99BC2E"/>
<path d="M38.1894 22.7659C38.5941 22.7659 38.9221 22.4405 38.9221 22.0392C38.9221 21.6379 38.5941 21.3125 38.1894 21.3125C37.7847 21.3125 37.4566 21.6379 37.4566 22.0392C37.4566 22.4405 37.7847 22.7659 38.1894 22.7659Z" fill="#99BC2E"/>
<path d="M8.91392 4.7235C9.28383 4.7235 9.5837 3.97875 9.5837 3.06005C9.5837 2.14136 9.28383 1.39661 8.91392 1.39661C8.54402 1.39661 8.24415 2.14136 8.24415 3.06005C8.24415 3.97875 8.54402 4.7235 8.91392 4.7235Z" fill="white"/>
<path d="M8.75936 4.75756C9.15456 4.75756 9.47493 3.99756 9.47493 3.06005C9.47493 2.12255 9.15456 1.36255 8.75936 1.36255C8.36416 1.36255 8.04379 2.12255 8.04379 3.06005C8.04379 3.99756 8.36416 4.75756 8.75936 4.75756Z" fill="#212121"/>
<path d="M68.9264 10.5491C68.6134 9.59884 68.2007 8.74738 67.6884 7.99472C67.1856 7.23264 66.5832 6.58346 65.8812 6.04718C65.1887 5.5109 64.4013 5.10164 63.519 4.81939C62.6367 4.53714 61.6691 4.39601 60.616 4.39601C58.8895 4.39601 57.3194 4.83821 55.9059 5.72259C54.4924 6.60698 53.3682 7.91004 52.5333 9.63177C51.6985 11.3535 51.2811 13.4657 51.2811 15.9683C51.2811 18.4709 51.7032 20.5831 52.5476 22.3048C53.3919 24.0266 54.535 25.3296 55.977 26.214C57.419 27.0984 59.0412 27.5406 60.8437 27.5406C62.5134 27.5406 63.9838 27.1878 65.2551 26.4822C66.5358 25.7671 67.5319 24.7604 68.2434 23.4621C68.9644 22.1543 69.3249 20.616 69.3249 18.8473L70.4064 19.0731H61.6406V15.9683H72.7401V19.0731C72.7401 21.4534 72.2278 23.5232 71.2033 25.2826C70.1882 27.042 68.7841 28.4062 66.9911 29.3752C65.2076 30.3349 63.1585 30.8147 60.8437 30.8147C58.2633 30.8147 55.996 30.2126 54.0417 29.0083C52.097 27.804 50.5791 26.0917 49.4881 23.8713C48.4066 21.651 47.8659 19.0166 47.8659 15.9683C47.8659 13.6821 48.1742 11.6263 48.7908 9.80112C49.4169 7.96649 50.2992 6.4047 51.4376 5.11575C52.576 3.82681 53.9231 2.83893 55.479 2.15212C57.0348 1.46531 58.7472 1.1219 60.616 1.1219C62.1529 1.1219 63.5854 1.3524 64.9135 1.81341C66.2512 2.26502 67.4418 2.90949 68.4853 3.74683C69.5383 4.57477 70.4159 5.56735 71.1179 6.72458C71.8199 7.87241 72.3037 9.14724 72.5693 10.5491H68.9264Z" fill="#586F17"/>
<path d="M81.6873 1.51705V30.4196H78.329V1.51705H81.6873Z" fill="#586F17"/>
<path d="M94.2703 30.9276C92.8852 30.9276 91.6282 30.6689 90.4993 30.1514C89.3704 29.6246 88.4739 28.8672 87.8098 27.8793C87.1457 26.882 86.8137 25.6777 86.8137 24.2665C86.8137 23.0246 87.0603 22.0179 87.5537 21.2464C88.047 20.4655 88.7063 19.854 89.5316 19.4118C90.357 18.9696 91.2677 18.6403 92.2638 18.4239C93.2694 18.1981 94.2798 18.0193 95.2948 17.8876C96.623 17.7183 97.6997 17.5913 98.5251 17.5066C99.3599 17.4125 99.9671 17.2573 100.347 17.0409C100.735 16.8245 100.93 16.4481 100.93 15.9119V15.799C100.93 14.4065 100.546 13.3246 99.7773 12.5531C99.0184 11.7816 97.8657 11.3958 96.3194 11.3958C94.7161 11.3958 93.4592 11.744 92.5484 12.4402C91.6377 13.1364 90.9973 13.8796 90.6274 14.67L87.4398 13.5409C88.009 12.2238 88.768 11.1983 89.7166 10.4644C90.6748 9.72115 91.7183 9.20369 92.8473 8.91203C93.9857 8.61096 95.1051 8.46043 96.2056 8.46043C96.9076 8.46043 97.714 8.5451 98.6247 8.71445C99.5449 8.8744 100.432 9.20839 101.286 9.71645C102.149 10.2245 102.865 10.9913 103.434 12.0168C104.004 13.0423 104.288 14.4159 104.288 16.1377V30.4196H100.93V27.4842H100.759C100.532 27.9546 100.152 28.4579 99.6208 28.9942C99.0895 29.5305 98.3828 29.9868 97.5005 30.3631C96.6182 30.7395 95.5415 30.9276 94.2703 30.9276ZM94.7826 27.9358C96.1107 27.9358 97.2301 27.677 98.1409 27.1596C99.0611 26.6421 99.7536 25.9741 100.218 25.1556C100.693 24.3371 100.93 23.4762 100.93 22.573V19.5247C100.788 19.694 100.475 19.8493 99.9908 19.9904C99.5164 20.1221 98.9662 20.2397 98.3401 20.3432C97.7234 20.4373 97.121 20.522 96.5329 20.5972C95.9542 20.6631 95.4846 20.7195 95.1241 20.7666C94.2513 20.8795 93.4354 21.0629 92.6765 21.317C91.927 21.5616 91.3199 21.9332 90.855 22.4319C90.3997 22.9211 90.172 23.5891 90.172 24.4358C90.172 25.5931 90.6036 26.468 91.4669 27.0608C92.3397 27.6441 93.4449 27.9358 94.7826 27.9358Z" fill="#586F17"/>
<path d="M125.9 13.5974L122.883 14.4442C122.694 13.9455 122.414 13.461 122.044 12.9906C121.683 12.5107 121.19 12.1156 120.564 11.8051C119.938 11.4946 119.136 11.3394 118.159 11.3394C116.821 11.3394 115.707 11.6452 114.815 12.2567C113.933 12.8588 113.492 13.6256 113.492 14.5571C113.492 15.385 113.795 16.0389 114.402 16.5187C115.009 16.9985 115.958 17.3984 117.248 17.7183L120.493 18.5086C122.447 18.979 123.903 19.6987 124.861 20.6678C125.82 21.6274 126.299 22.8646 126.299 24.3794C126.299 25.6213 125.938 26.7315 125.217 27.71C124.506 28.6884 123.51 29.4599 122.229 30.0244C120.948 30.5889 119.459 30.8712 117.761 30.8712C115.531 30.8712 113.686 30.3913 112.225 29.4317C110.764 28.472 109.839 27.0702 109.45 25.2261L112.638 24.4358C112.941 25.6025 113.515 26.4775 114.36 27.0608C115.213 27.6441 116.328 27.9358 117.704 27.9358C119.269 27.9358 120.512 27.6065 121.432 26.9479C122.362 26.2799 122.827 25.4802 122.827 24.5487C122.827 23.7961 122.561 23.1657 122.03 22.6577C121.498 22.1402 120.683 21.7545 119.582 21.5004L115.939 20.6537C113.937 20.1833 112.467 19.4541 111.528 18.4662C110.598 17.4689 110.133 16.2223 110.133 14.7264C110.133 13.5033 110.48 12.4214 111.172 11.4805C111.874 10.5397 112.828 9.80112 114.032 9.26484C115.247 8.72857 116.622 8.46043 118.159 8.46043C120.322 8.46043 122.02 8.93085 123.253 9.87168C124.496 10.8125 125.378 12.0544 125.9 13.5974Z" fill="#586F17"/>
<path d="M146.836 13.5974L143.82 14.4442C143.63 13.9455 143.35 13.461 142.98 12.9906C142.619 12.5107 142.126 12.1156 141.5 11.8051C140.874 11.4946 140.072 11.3394 139.095 11.3394C137.758 11.3394 136.643 11.6452 135.751 12.2567C134.869 12.8588 134.428 13.6256 134.428 14.5571C134.428 15.385 134.731 16.0389 135.338 16.5187C135.946 16.9985 136.894 17.3984 138.184 17.7183L141.429 18.5086C143.383 18.979 144.839 19.6987 145.798 20.6678C146.756 21.6274 147.235 22.8646 147.235 24.3794C147.235 25.6213 146.874 26.7315 146.153 27.71C145.442 28.6884 144.446 29.4599 143.165 30.0244C141.884 30.5889 140.395 30.8712 138.697 30.8712C136.467 30.8712 134.622 30.3913 133.161 29.4317C131.7 28.472 130.775 27.0702 130.386 25.2261L133.574 24.4358C133.877 25.6025 134.451 26.4775 135.296 27.0608C136.15 27.6441 137.264 27.9358 138.64 27.9358C140.205 27.9358 141.448 27.6065 142.368 26.9479C143.298 26.2799 143.763 25.4802 143.763 24.5487C143.763 23.7961 143.497 23.1657 142.966 22.6577C142.434 22.1402 141.619 21.7545 140.518 21.5004L136.875 20.6537C134.874 20.1833 133.403 19.4541 132.464 18.4662C131.534 17.4689 131.069 16.2223 131.069 14.7264C131.069 13.5033 131.416 12.4214 132.108 11.4805C132.81 10.5397 133.764 9.80112 134.968 9.26484C136.183 8.72857 137.558 8.46043 139.095 8.46043C141.258 8.46043 142.956 8.93085 144.19 9.87168C145.432 10.8125 146.315 12.0544 146.836 13.5974Z" fill="#586F17"/>
<path d="M152.745 30.4196V1.51705H170.22V4.62181H156.274V14.3877H168.911V17.4925H156.274V30.4196H152.745Z" fill="#586F17"/>
<path d="M175.574 30.4196V8.74268H178.819V12.0168H179.046C179.445 10.9442 180.166 10.074 181.209 9.40597C182.253 8.73798 183.429 8.40398 184.738 8.40398C184.985 8.40398 185.293 8.40868 185.663 8.41809C186.033 8.4275 186.313 8.44161 186.503 8.46043V11.8474C186.389 11.8192 186.128 11.7769 185.72 11.7204C185.322 11.6546 184.9 11.6216 184.454 11.6216C183.391 11.6216 182.442 11.8427 181.608 12.2849C180.782 12.7177 180.128 13.3199 179.644 14.0913C179.17 14.8534 178.932 15.7237 178.932 16.7022V30.4196H175.574Z" fill="#586F17"/>
<path d="M198.698 30.8712C196.725 30.8712 194.993 30.4055 193.504 29.474C192.024 28.5426 190.867 27.2395 190.032 25.5648C189.206 23.8902 188.794 21.9332 188.794 19.694C188.794 17.436 189.206 15.465 190.032 13.7809C190.867 12.0968 192.024 10.789 193.504 9.85757C194.993 8.92614 196.725 8.46043 198.698 8.46043C200.671 8.46043 202.398 8.92614 203.878 9.85757C205.367 10.789 206.525 12.0968 207.35 13.7809C208.185 15.465 208.602 17.436 208.602 19.694C208.602 21.9332 208.185 23.8902 207.35 25.5648C206.525 27.2395 205.367 28.5426 203.878 29.474C202.398 30.4055 200.671 30.8712 198.698 30.8712ZM198.698 27.8793C200.197 27.8793 201.43 27.4983 202.398 26.7362C203.365 25.9741 204.082 24.9721 204.547 23.7302C205.011 22.4883 205.244 21.1429 205.244 19.694C205.244 18.2451 205.011 16.895 204.547 15.6437C204.082 14.3924 203.365 13.381 202.398 12.6095C201.43 11.838 200.197 11.4523 198.698 11.4523C197.199 11.4523 195.966 11.838 194.998 12.6095C194.03 13.381 193.314 14.3924 192.849 15.6437C192.385 16.895 192.152 18.2451 192.152 19.694C192.152 21.1429 192.385 22.4883 192.849 23.7302C193.314 24.9721 194.03 25.9741 194.998 26.7362C195.966 27.4983 197.199 27.8793 198.698 27.8793Z" fill="#586F17"/>
<path d="M222.551 39C220.929 39 219.534 38.793 218.368 38.379C217.201 37.9745 216.228 37.4382 215.45 36.7702C214.682 36.1116 214.07 35.406 213.615 34.6533L216.29 32.7905C216.594 33.1856 216.978 33.6372 217.443 34.1453C217.907 34.6627 218.543 35.1096 219.349 35.486C220.165 35.8717 221.233 36.0646 222.551 36.0646C224.316 36.0646 225.772 35.6412 226.92 34.7945C228.068 33.9477 228.642 32.6211 228.642 30.8147V26.4116H228.357C228.11 26.8068 227.759 27.296 227.304 27.8793C226.858 28.4532 226.213 28.966 225.369 29.4176C224.534 29.8598 223.405 30.0809 221.982 30.0809C220.217 30.0809 218.633 29.6669 217.229 28.839C215.835 28.011 214.729 26.8068 213.914 25.2261C213.107 23.6455 212.704 21.7262 212.704 19.4682C212.704 17.2478 213.098 15.3144 213.885 13.668C214.672 12.0121 215.768 10.7325 217.172 9.82935C218.576 8.91673 220.198 8.46043 222.039 8.46043C223.462 8.46043 224.591 8.69564 225.426 9.16606C226.27 9.62707 226.915 10.1539 227.361 10.7467C227.816 11.33 228.167 11.8098 228.414 12.1861H228.756V8.74268H232V31.0405C232 32.9034 231.573 34.4181 230.719 35.5848C229.875 36.7608 228.737 37.6217 227.304 38.1674C225.881 38.7225 224.297 39 222.551 39ZM222.437 27.089C223.784 27.089 224.923 26.7832 225.853 26.1717C226.782 25.5601 227.489 24.6805 227.973 23.5326C228.457 22.3848 228.699 21.0112 228.699 19.4118C228.699 17.85 228.461 16.4717 227.987 15.2768C227.513 14.0819 226.811 13.1458 225.881 12.4684C224.951 11.791 223.803 11.4523 222.437 11.4523C221.014 11.4523 219.829 11.8098 218.88 12.5248C217.941 13.2399 217.234 14.1995 216.76 15.4038C216.295 16.6081 216.062 17.9441 216.062 19.4118C216.062 20.9171 216.299 22.2484 216.774 23.4056C217.258 24.5534 217.969 25.4566 218.908 26.1152C219.857 26.7644 221.033 27.089 222.437 27.089Z" fill="#586F17"/>
<path d="M216.316 6.41868V1.76104H214.729V1.20467H218.576V1.76104H216.989V6.41868H216.316Z" fill="#586F17"/>
<path d="M219.522 6.41868V1.20467H220.324L221.334 3.98653C221.398 4.16669 221.459 4.3495 221.518 4.53496C221.582 4.71512 221.646 4.89528 221.71 5.07544H221.742C221.806 4.89528 221.865 4.71512 221.919 4.53496C221.977 4.3495 222.039 4.16669 222.103 3.98653L223.097 1.20467H223.906V6.41868H223.281V3.54938C223.281 3.31624 223.292 3.05924 223.313 2.77841C223.335 2.49227 223.353 2.23528 223.369 2.00743H223.337L222.92 3.19171L221.927 5.8941H221.486L220.492 3.19171L220.075 2.00743H220.043C220.059 2.23528 220.075 2.49227 220.091 2.77841C220.113 3.05924 220.123 3.31624 220.123 3.54938V6.41868H219.522Z" fill="#586F17"/>
</svg>
