<svg width="158" height="60" viewBox="0 0 158 60" fill="none" xmlns="http://www.w3.org/2000/svg">
<path d="M74.304 16.152V35.64H85.632L85.152 39H70.432V16.152H74.304ZM97.259 39.576C95.6163 39.576 94.1337 39.3093 92.811 38.776C91.5097 38.2213 90.3897 37.432 89.451 36.408C88.5123 35.384 87.787 34.136 87.275 32.664C86.7843 31.1707 86.539 29.4853 86.539 27.608C86.539 25.7307 86.795 24.0453 87.307 22.552C87.819 21.0587 88.5443 19.8 89.483 18.776C90.4217 17.7307 91.5523 16.9413 92.875 16.408C94.1977 15.8533 95.659 15.576 97.259 15.576C98.8803 15.576 100.352 15.8533 101.675 16.408C102.998 16.9413 104.118 17.72 105.035 18.744C105.952 19.768 106.656 21.0267 107.147 22.52C107.659 23.992 107.915 25.6667 107.915 27.544C107.915 29.4427 107.67 31.1387 107.179 32.632C106.688 34.104 105.984 35.3627 105.067 36.408C104.15 37.432 103.03 38.2213 101.707 38.776C100.406 39.3093 98.923 39.576 97.259 39.576ZM97.227 36.248C99.4243 36.248 101.088 35.48 102.219 33.944C103.35 32.3867 103.915 30.264 103.915 27.576C103.915 26.232 103.766 25.0267 103.467 23.96C103.19 22.8933 102.774 21.9867 102.219 21.24C101.664 20.4933 100.971 19.9173 100.139 19.512C99.307 19.1067 98.3363 18.904 97.227 18.904C96.1177 18.904 95.147 19.1067 94.315 19.512C93.483 19.9173 92.779 20.4933 92.203 21.24C91.6483 21.9867 91.2323 22.8933 90.955 23.96C90.6777 25.0267 90.539 26.232 90.539 27.576C90.539 30.264 91.0937 32.3867 92.203 33.944C93.3337 35.48 95.0083 36.248 97.227 36.248ZM130.938 26.872V36.28C129.764 37.368 128.378 38.1893 126.778 38.744C125.178 39.2987 123.567 39.576 121.946 39.576C120.175 39.576 118.618 39.2987 117.274 38.744C115.951 38.168 114.842 37.368 113.946 36.344C113.05 35.2987 112.378 34.04 111.93 32.568C111.482 31.096 111.258 29.4427 111.258 27.608C111.258 25.752 111.503 24.088 111.994 22.616C112.484 21.1227 113.178 19.8533 114.074 18.808C114.97 17.7627 116.058 16.9627 117.338 16.408C118.618 15.8533 120.047 15.576 121.626 15.576C123.012 15.576 124.218 15.7573 125.242 16.12C126.287 16.4613 127.162 16.9413 127.866 17.56C128.591 18.1787 129.167 18.904 129.594 19.736C130.042 20.5467 130.362 21.4213 130.554 22.36L126.746 22.904C126.575 22.264 126.362 21.6987 126.106 21.208C125.871 20.696 125.551 20.2693 125.146 19.928C124.762 19.5867 124.282 19.3307 123.706 19.16C123.13 18.968 122.436 18.872 121.626 18.872C120.559 18.872 119.62 19.0853 118.81 19.512C118.02 19.9173 117.359 20.504 116.826 21.272C116.292 22.04 115.898 22.9573 115.642 24.024C115.386 25.0907 115.258 26.2747 115.258 27.576C115.258 28.92 115.386 30.1253 115.642 31.192C115.898 32.2587 116.303 33.176 116.858 33.944C117.412 34.6907 118.106 35.2667 118.938 35.672C119.791 36.0773 120.815 36.28 122.01 36.28C123.076 36.28 124.036 36.1733 124.89 35.96C125.743 35.7253 126.564 35.3307 127.354 34.776V30.136H122.298V26.872H130.938ZM145.04 39.576C143.398 39.576 141.915 39.3093 140.592 38.776C139.291 38.2213 138.171 37.432 137.232 36.408C136.294 35.384 135.568 34.136 135.056 32.664C134.566 31.1707 134.32 29.4853 134.32 27.608C134.32 25.7307 134.576 24.0453 135.088 22.552C135.6 21.0587 136.326 19.8 137.264 18.776C138.203 17.7307 139.334 16.9413 140.656 16.408C141.979 15.8533 143.44 15.576 145.04 15.576C146.662 15.576 148.134 15.8533 149.456 16.408C150.779 16.9413 151.899 17.72 152.816 18.744C153.734 19.768 154.438 21.0267 154.928 22.52C155.44 23.992 155.696 25.6667 155.696 27.544C155.696 29.4427 155.451 31.1387 154.96 32.632C154.47 34.104 153.766 35.3627 152.848 36.408C151.931 37.432 150.811 38.2213 149.488 38.776C148.187 39.3093 146.704 39.576 145.04 39.576ZM145.008 36.248C147.206 36.248 148.87 35.48 150 33.944C151.131 32.3867 151.696 30.264 151.696 27.576C151.696 26.232 151.547 25.0267 151.248 23.96C150.971 22.8933 150.555 21.9867 150 21.24C149.446 20.4933 148.752 19.9173 147.92 19.512C147.088 19.1067 146.118 18.904 145.008 18.904C143.899 18.904 142.928 19.1067 142.096 19.512C141.264 19.9173 140.56 20.4933 139.984 21.24C139.43 21.9867 139.014 22.8933 138.736 23.96C138.459 25.0267 138.32 26.232 138.32 27.576C138.32 30.264 138.875 32.3867 139.984 33.944C141.115 35.48 142.79 36.248 145.008 36.248Z" fill="black"/>
<rect width="60" height="60" rx="30" fill="#1B1916"/>
<path d="M14.0059 38.8755C14.1937 33.7674 27.5084 33.4987 27.5084 33.4987C27.5084 33.4987 25.9232 12.9893 30.5 10.5005C37.4953 6.6966 45.3134 25.5695 45 33.4987C44.7035 40.9998 35.0262 48.3734 27.5084 48.9572C20.937 49.4675 13.7648 45.433 14.0059 38.8755Z" fill="white" stroke="black"/>
</svg>
